<svg xmlns="http://www.w3.org/2000/svg" xmlns:xlink="http://www.w3.org/1999/xlink" width="1781" zoomAndPan="magnify" viewBox="0 0 1335.75 1310.250005" height="1747" preserveAspectRatio="xMidYMid meet" version="1.0"><defs><g/><clipPath id="27382f73aa"><path d="M 0.257812 0 L 1335.242188 0 L 1335.242188 1309.5 L 0.257812 1309.5 Z M 0.257812 0 " clip-rule="nonzero"/></clipPath><linearGradient x1="890.5" gradientTransform="matrix(0.749571, 0, 0, 0.749571, 0.257148, 0.0000399771)" y1="0" x2="890.5" gradientUnits="userSpaceOnUse" y2="1746.999927" id="fdb8a7da26"><stop stop-opacity="1" stop-color="rgb(27.059937%, 0%, 31.369019%)" offset="0"/><stop stop-opacity="1" stop-color="rgb(27.307129%, 0.126648%, 31.636047%)" offset="0.00390625"/><stop stop-opacity="1" stop-color="rgb(27.555847%, 0.253296%, 31.903076%)" offset="0.0078125"/><stop stop-opacity="1" stop-color="rgb(27.80304%, 0.379944%, 32.168579%)" offset="0.0117188"/><stop stop-opacity="1" stop-color="rgb(28.051758%, 0.508118%, 32.435608%)" offset="0.015625"/><stop stop-opacity="1" stop-color="rgb(28.29895%, 0.634766%, 32.701111%)" offset="0.0195312"/><stop stop-opacity="1" stop-color="rgb(28.547668%, 0.761414%, 32.96814%)" offset="0.0234375"/><stop stop-opacity="1" stop-color="rgb(28.796387%, 0.888062%, 33.235168%)" offset="0.0273438"/><stop stop-opacity="1" stop-color="rgb(29.045105%, 1.016235%, 33.502197%)" offset="0.03125"/><stop stop-opacity="1" stop-color="rgb(29.292297%, 1.142883%, 33.7677%)" offset="0.0351562"/><stop stop-opacity="1" stop-color="rgb(29.541016%, 1.271057%, 34.034729%)" offset="0.0390625"/><stop stop-opacity="1" stop-color="rgb(29.788208%, 1.397705%, 34.300232%)" offset="0.0429688"/><stop stop-opacity="1" stop-color="rgb(30.036926%, 1.524353%, 34.567261%)" offset="0.046875"/><stop stop-opacity="1" stop-color="rgb(30.284119%, 1.651001%, 34.83429%)" offset="0.0507812"/><stop stop-opacity="1" stop-color="rgb(30.532837%, 1.779175%, 35.101318%)" offset="0.0546875"/><stop stop-opacity="1" stop-color="rgb(30.781555%, 1.905823%, 35.366821%)" offset="0.0585938"/><stop stop-opacity="1" stop-color="rgb(31.030273%, 2.033997%, 35.63385%)" offset="0.0625"/><stop stop-opacity="1" stop-color="rgb(31.277466%, 2.160645%, 35.900879%)" offset="0.0664062"/><stop stop-opacity="1" stop-color="rgb(31.526184%, 2.287292%, 36.167908%)" offset="0.0703125"/><stop stop-opacity="1" stop-color="rgb(31.773376%, 2.41394%, 36.433411%)" offset="0.0742188"/><stop stop-opacity="1" stop-color="rgb(32.022095%, 2.542114%, 36.700439%)" offset="0.078125"/><stop stop-opacity="1" stop-color="rgb(32.270813%, 2.668762%, 36.965942%)" offset="0.0820312"/><stop stop-opacity="1" stop-color="rgb(32.519531%, 2.796936%, 37.232971%)" offset="0.0859375"/><stop stop-opacity="1" stop-color="rgb(32.766724%, 2.923584%, 37.5%)" offset="0.0898438"/><stop stop-opacity="1" stop-color="rgb(33.015442%, 3.050232%, 37.767029%)" offset="0.09375"/><stop stop-opacity="1" stop-color="rgb(33.262634%, 3.17688%, 38.032532%)" offset="0.0976562"/><stop stop-opacity="1" stop-color="rgb(33.511353%, 3.305054%, 38.299561%)" offset="0.101562"/><stop stop-opacity="1" stop-color="rgb(33.758545%, 3.431702%, 38.566589%)" offset="0.105469"/><stop stop-opacity="1" stop-color="rgb(34.007263%, 3.559875%, 38.833618%)" offset="0.109375"/><stop stop-opacity="1" stop-color="rgb(34.255981%, 3.686523%, 39.099121%)" offset="0.113281"/><stop stop-opacity="1" stop-color="rgb(34.5047%, 3.813171%, 39.36615%)" offset="0.117188"/><stop stop-opacity="1" stop-color="rgb(34.751892%, 3.939819%, 39.631653%)" offset="0.121094"/><stop stop-opacity="1" stop-color="rgb(35.00061%, 4.067993%, 39.898682%)" offset="0.125"/><stop stop-opacity="1" stop-color="rgb(35.247803%, 4.194641%, 40.16571%)" offset="0.128906"/><stop stop-opacity="1" stop-color="rgb(35.496521%, 4.322815%, 40.432739%)" offset="0.132812"/><stop stop-opacity="1" stop-color="rgb(35.743713%, 4.449463%, 40.698242%)" offset="0.136719"/><stop stop-opacity="1" stop-color="rgb(35.992432%, 4.576111%, 40.965271%)" offset="0.140625"/><stop stop-opacity="1" stop-color="rgb(36.24115%, 4.702759%, 41.2323%)" offset="0.144531"/><stop stop-opacity="1" stop-color="rgb(36.489868%, 4.830933%, 41.499329%)" offset="0.148438"/><stop stop-opacity="1" stop-color="rgb(36.737061%, 4.957581%, 41.764832%)" offset="0.152344"/><stop stop-opacity="1" stop-color="rgb(36.985779%, 5.085754%, 42.03186%)" offset="0.15625"/><stop stop-opacity="1" stop-color="rgb(37.232971%, 5.212402%, 42.297363%)" offset="0.160156"/><stop stop-opacity="1" stop-color="rgb(37.481689%, 5.33905%, 42.564392%)" offset="0.164062"/><stop stop-opacity="1" stop-color="rgb(37.730408%, 5.465698%, 42.831421%)" offset="0.167969"/><stop stop-opacity="1" stop-color="rgb(37.979126%, 5.593872%, 43.09845%)" offset="0.171875"/><stop stop-opacity="1" stop-color="rgb(38.226318%, 5.72052%, 43.363953%)" offset="0.175781"/><stop stop-opacity="1" stop-color="rgb(38.475037%, 5.848694%, 43.630981%)" offset="0.179688"/><stop stop-opacity="1" stop-color="rgb(38.722229%, 5.975342%, 43.896484%)" offset="0.183594"/><stop stop-opacity="1" stop-color="rgb(38.970947%, 6.10199%, 44.163513%)" offset="0.1875"/><stop stop-opacity="1" stop-color="rgb(39.21814%, 6.228638%, 44.430542%)" offset="0.191406"/><stop stop-opacity="1" stop-color="rgb(39.466858%, 6.356812%, 44.697571%)" offset="0.195312"/><stop stop-opacity="1" stop-color="rgb(39.715576%, 6.483459%, 44.963074%)" offset="0.199219"/><stop stop-opacity="1" stop-color="rgb(39.964294%, 6.611633%, 45.230103%)" offset="0.203125"/><stop stop-opacity="1" stop-color="rgb(40.211487%, 6.738281%, 45.497131%)" offset="0.207031"/><stop stop-opacity="1" stop-color="rgb(40.460205%, 6.864929%, 45.76416%)" offset="0.210938"/><stop stop-opacity="1" stop-color="rgb(40.707397%, 6.991577%, 46.029663%)" offset="0.214844"/><stop stop-opacity="1" stop-color="rgb(40.956116%, 7.119751%, 46.296692%)" offset="0.21875"/><stop stop-opacity="1" stop-color="rgb(41.203308%, 7.246399%, 46.562195%)" offset="0.222656"/><stop stop-opacity="1" stop-color="rgb(41.452026%, 7.374573%, 46.829224%)" offset="0.226562"/><stop stop-opacity="1" stop-color="rgb(41.700745%, 7.501221%, 47.096252%)" offset="0.230469"/><stop stop-opacity="1" stop-color="rgb(41.949463%, 7.627869%, 47.363281%)" offset="0.234375"/><stop stop-opacity="1" stop-color="rgb(42.196655%, 7.754517%, 47.628784%)" offset="0.238281"/><stop stop-opacity="1" stop-color="rgb(42.445374%, 7.88269%, 47.895813%)" offset="0.242188"/><stop stop-opacity="1" stop-color="rgb(42.692566%, 8.009338%, 48.162842%)" offset="0.246094"/><stop stop-opacity="1" stop-color="rgb(42.941284%, 8.135986%, 48.429871%)" offset="0.25"/><stop stop-opacity="1" stop-color="rgb(43.190002%, 8.262634%, 48.695374%)" offset="0.253906"/><stop stop-opacity="1" stop-color="rgb(43.438721%, 8.390808%, 48.962402%)" offset="0.257812"/><stop stop-opacity="1" stop-color="rgb(43.685913%, 8.517456%, 49.227905%)" offset="0.261719"/><stop stop-opacity="1" stop-color="rgb(43.934631%, 8.64563%, 49.494934%)" offset="0.265625"/><stop stop-opacity="1" stop-color="rgb(44.181824%, 8.772278%, 49.761963%)" offset="0.269531"/><stop stop-opacity="1" stop-color="rgb(44.430542%, 8.898926%, 50.028992%)" offset="0.273438"/><stop stop-opacity="1" stop-color="rgb(44.677734%, 9.025574%, 50.294495%)" offset="0.277344"/><stop stop-opacity="1" stop-color="rgb(44.926453%, 9.153748%, 50.561523%)" offset="0.28125"/><stop stop-opacity="1" stop-color="rgb(45.175171%, 9.280396%, 50.828552%)" offset="0.285156"/><stop stop-opacity="1" stop-color="rgb(45.423889%, 9.408569%, 51.095581%)" offset="0.289062"/><stop stop-opacity="1" stop-color="rgb(45.671082%, 9.535217%, 51.361084%)" offset="0.292969"/><stop stop-opacity="1" stop-color="rgb(45.9198%, 9.661865%, 51.628113%)" offset="0.296875"/><stop stop-opacity="1" stop-color="rgb(46.166992%, 9.788513%, 51.893616%)" offset="0.300781"/><stop stop-opacity="1" stop-color="rgb(46.41571%, 9.916687%, 52.160645%)" offset="0.304688"/><stop stop-opacity="1" stop-color="rgb(46.662903%, 10.043335%, 52.427673%)" offset="0.308594"/><stop stop-opacity="1" stop-color="rgb(46.911621%, 10.171509%, 52.694702%)" offset="0.3125"/><stop stop-opacity="1" stop-color="rgb(47.160339%, 10.298157%, 52.960205%)" offset="0.316406"/><stop stop-opacity="1" stop-color="rgb(47.409058%, 10.424805%, 53.227234%)" offset="0.320312"/><stop stop-opacity="1" stop-color="rgb(47.65625%, 10.551453%, 53.492737%)" offset="0.324219"/><stop stop-opacity="1" stop-color="rgb(47.904968%, 10.679626%, 53.759766%)" offset="0.328125"/><stop stop-opacity="1" stop-color="rgb(48.152161%, 10.806274%, 54.026794%)" offset="0.332031"/><stop stop-opacity="1" stop-color="rgb(48.400879%, 10.934448%, 54.293823%)" offset="0.335938"/><stop stop-opacity="1" stop-color="rgb(48.649597%, 11.061096%, 54.559326%)" offset="0.339844"/><stop stop-opacity="1" stop-color="rgb(48.898315%, 11.187744%, 54.826355%)" offset="0.34375"/><stop stop-opacity="1" stop-color="rgb(49.145508%, 11.314392%, 55.093384%)" offset="0.347656"/><stop stop-opacity="1" stop-color="rgb(49.394226%, 11.442566%, 55.360413%)" offset="0.351562"/><stop stop-opacity="1" stop-color="rgb(49.641418%, 11.569214%, 55.625916%)" offset="0.355469"/><stop stop-opacity="1" stop-color="rgb(49.890137%, 11.697388%, 55.892944%)" offset="0.359375"/><stop stop-opacity="1" stop-color="rgb(50.137329%, 11.824036%, 56.158447%)" offset="0.363281"/><stop stop-opacity="1" stop-color="rgb(50.386047%, 11.950684%, 56.425476%)" offset="0.367188"/><stop stop-opacity="1" stop-color="rgb(50.634766%, 12.077332%, 56.692505%)" offset="0.371094"/><stop stop-opacity="1" stop-color="rgb(50.883484%, 12.205505%, 56.959534%)" offset="0.375"/><stop stop-opacity="1" stop-color="rgb(51.130676%, 12.332153%, 57.225037%)" offset="0.378906"/><stop stop-opacity="1" stop-color="rgb(51.379395%, 12.460327%, 57.492065%)" offset="0.382812"/><stop stop-opacity="1" stop-color="rgb(51.626587%, 12.586975%, 57.759094%)" offset="0.386719"/><stop stop-opacity="1" stop-color="rgb(51.875305%, 12.713623%, 58.026123%)" offset="0.390625"/><stop stop-opacity="1" stop-color="rgb(52.122498%, 12.840271%, 58.291626%)" offset="0.394531"/><stop stop-opacity="1" stop-color="rgb(52.371216%, 12.968445%, 58.558655%)" offset="0.398438"/><stop stop-opacity="1" stop-color="rgb(52.619934%, 13.095093%, 58.824158%)" offset="0.402344"/><stop stop-opacity="1" stop-color="rgb(52.868652%, 13.223267%, 59.091187%)" offset="0.40625"/><stop stop-opacity="1" stop-color="rgb(53.115845%, 13.349915%, 59.358215%)" offset="0.410156"/><stop stop-opacity="1" stop-color="rgb(53.364563%, 13.476562%, 59.625244%)" offset="0.414062"/><stop stop-opacity="1" stop-color="rgb(53.611755%, 13.60321%, 59.890747%)" offset="0.417969"/><stop stop-opacity="1" stop-color="rgb(53.860474%, 13.731384%, 60.157776%)" offset="0.421875"/><stop stop-opacity="1" stop-color="rgb(54.109192%, 13.858032%, 60.424805%)" offset="0.425781"/><stop stop-opacity="1" stop-color="rgb(54.35791%, 13.986206%, 60.691833%)" offset="0.429688"/><stop stop-opacity="1" stop-color="rgb(54.605103%, 14.112854%, 60.957336%)" offset="0.433594"/><stop stop-opacity="1" stop-color="rgb(54.853821%, 14.239502%, 61.224365%)" offset="0.4375"/><stop stop-opacity="1" stop-color="rgb(55.101013%, 14.36615%, 61.489868%)" offset="0.441406"/><stop stop-opacity="1" stop-color="rgb(55.349731%, 14.494324%, 61.756897%)" offset="0.445312"/><stop stop-opacity="1" stop-color="rgb(55.596924%, 14.620972%, 62.023926%)" offset="0.449219"/><stop stop-opacity="1" stop-color="rgb(55.845642%, 14.749146%, 62.290955%)" offset="0.453125"/><stop stop-opacity="1" stop-color="rgb(56.09436%, 14.875793%, 62.556458%)" offset="0.457031"/><stop stop-opacity="1" stop-color="rgb(56.343079%, 15.002441%, 62.823486%)" offset="0.460938"/><stop stop-opacity="1" stop-color="rgb(56.590271%, 15.129089%, 63.088989%)" offset="0.464844"/><stop stop-opacity="1" stop-color="rgb(56.838989%, 15.257263%, 63.356018%)" offset="0.46875"/><stop stop-opacity="1" stop-color="rgb(57.086182%, 15.383911%, 63.623047%)" offset="0.472656"/><stop stop-opacity="1" stop-color="rgb(57.3349%, 15.512085%, 63.890076%)" offset="0.476562"/><stop stop-opacity="1" stop-color="rgb(57.583618%, 15.638733%, 64.155579%)" offset="0.480469"/><stop stop-opacity="1" stop-color="rgb(57.832336%, 15.765381%, 64.422607%)" offset="0.484375"/><stop stop-opacity="1" stop-color="rgb(58.079529%, 15.892029%, 64.689636%)" offset="0.488281"/><stop stop-opacity="1" stop-color="rgb(58.328247%, 16.020203%, 64.956665%)" offset="0.492188"/><stop stop-opacity="1" stop-color="rgb(58.575439%, 16.146851%, 65.222168%)" offset="0.496094"/><stop stop-opacity="1" stop-color="rgb(58.824158%, 16.273499%, 65.489197%)" offset="0.5"/><stop stop-opacity="1" stop-color="rgb(59.07135%, 16.400146%, 65.7547%)" offset="0.503906"/><stop stop-opacity="1" stop-color="rgb(59.320068%, 16.52832%, 66.021729%)" offset="0.507812"/><stop stop-opacity="1" stop-color="rgb(59.568787%, 16.654968%, 66.288757%)" offset="0.511719"/><stop stop-opacity="1" stop-color="rgb(59.817505%, 16.783142%, 66.555786%)" offset="0.515625"/><stop stop-opacity="1" stop-color="rgb(60.064697%, 16.90979%, 66.821289%)" offset="0.519531"/><stop stop-opacity="1" stop-color="rgb(60.313416%, 17.036438%, 67.088318%)" offset="0.523438"/><stop stop-opacity="1" stop-color="rgb(60.560608%, 17.163086%, 67.355347%)" offset="0.527344"/><stop stop-opacity="1" stop-color="rgb(60.809326%, 17.29126%, 67.622375%)" offset="0.53125"/><stop stop-opacity="1" stop-color="rgb(61.056519%, 17.417908%, 67.887878%)" offset="0.535156"/><stop stop-opacity="1" stop-color="rgb(61.305237%, 17.546082%, 68.154907%)" offset="0.539062"/><stop stop-opacity="1" stop-color="rgb(61.553955%, 17.672729%, 68.42041%)" offset="0.542969"/><stop stop-opacity="1" stop-color="rgb(61.802673%, 17.799377%, 68.687439%)" offset="0.546875"/><stop stop-opacity="1" stop-color="rgb(62.049866%, 17.926025%, 68.954468%)" offset="0.550781"/><stop stop-opacity="1" stop-color="rgb(62.298584%, 18.054199%, 69.221497%)" offset="0.554688"/><stop stop-opacity="1" stop-color="rgb(62.545776%, 18.180847%, 69.487%)" offset="0.558594"/><stop stop-opacity="1" stop-color="rgb(62.794495%, 18.309021%, 69.754028%)" offset="0.5625"/><stop stop-opacity="1" stop-color="rgb(63.043213%, 18.435669%, 70.021057%)" offset="0.566406"/><stop stop-opacity="1" stop-color="rgb(63.291931%, 18.562317%, 70.288086%)" offset="0.570312"/><stop stop-opacity="1" stop-color="rgb(63.539124%, 18.688965%, 70.553589%)" offset="0.574219"/><stop stop-opacity="1" stop-color="rgb(63.787842%, 18.817139%, 70.820618%)" offset="0.578125"/><stop stop-opacity="1" stop-color="rgb(64.035034%, 18.943787%, 71.086121%)" offset="0.582031"/><stop stop-opacity="1" stop-color="rgb(64.283752%, 19.07196%, 71.353149%)" offset="0.585938"/><stop stop-opacity="1" stop-color="rgb(64.530945%, 19.198608%, 71.620178%)" offset="0.589844"/><stop stop-opacity="1" stop-color="rgb(64.779663%, 19.325256%, 71.887207%)" offset="0.59375"/><stop stop-opacity="1" stop-color="rgb(65.028381%, 19.451904%, 72.15271%)" offset="0.597656"/><stop stop-opacity="1" stop-color="rgb(65.2771%, 19.580078%, 72.419739%)" offset="0.601562"/><stop stop-opacity="1" stop-color="rgb(65.524292%, 19.706726%, 72.685242%)" offset="0.605469"/><stop stop-opacity="1" stop-color="rgb(65.77301%, 19.8349%, 72.952271%)" offset="0.609375"/><stop stop-opacity="1" stop-color="rgb(66.020203%, 19.961548%, 73.219299%)" offset="0.613281"/><stop stop-opacity="1" stop-color="rgb(66.268921%, 20.088196%, 73.486328%)" offset="0.617188"/><stop stop-opacity="1" stop-color="rgb(66.516113%, 20.214844%, 73.751831%)" offset="0.621094"/><stop stop-opacity="1" stop-color="rgb(66.764832%, 20.343018%, 74.01886%)" offset="0.625"/><stop stop-opacity="1" stop-color="rgb(67.01355%, 20.469666%, 74.285889%)" offset="0.628906"/><stop stop-opacity="1" stop-color="rgb(67.262268%, 20.597839%, 74.552917%)" offset="0.632812"/><stop stop-opacity="1" stop-color="rgb(67.50946%, 20.724487%, 74.81842%)" offset="0.636719"/><stop stop-opacity="1" stop-color="rgb(67.758179%, 20.851135%, 75.085449%)" offset="0.640625"/><stop stop-opacity="1" stop-color="rgb(68.005371%, 20.977783%, 75.350952%)" offset="0.644531"/><stop stop-opacity="1" stop-color="rgb(68.254089%, 21.105957%, 75.617981%)" offset="0.648438"/><stop stop-opacity="1" stop-color="rgb(68.502808%, 21.232605%, 75.88501%)" offset="0.652344"/><stop stop-opacity="1" stop-color="rgb(68.751526%, 21.360779%, 76.152039%)" offset="0.65625"/><stop stop-opacity="1" stop-color="rgb(68.998718%, 21.487427%, 76.417542%)" offset="0.660156"/><stop stop-opacity="1" stop-color="rgb(69.247437%, 21.614075%, 76.68457%)" offset="0.664062"/><stop stop-opacity="1" stop-color="rgb(69.494629%, 21.740723%, 76.951599%)" offset="0.667969"/><stop stop-opacity="1" stop-color="rgb(69.743347%, 21.868896%, 77.218628%)" offset="0.671875"/><stop stop-opacity="1" stop-color="rgb(69.99054%, 21.995544%, 77.484131%)" offset="0.675781"/><stop stop-opacity="1" stop-color="rgb(70.239258%, 22.123718%, 77.75116%)" offset="0.679688"/><stop stop-opacity="1" stop-color="rgb(70.487976%, 22.250366%, 78.016663%)" offset="0.683594"/><stop stop-opacity="1" stop-color="rgb(70.736694%, 22.377014%, 78.283691%)" offset="0.6875"/><stop stop-opacity="1" stop-color="rgb(70.983887%, 22.503662%, 78.55072%)" offset="0.691406"/><stop stop-opacity="1" stop-color="rgb(71.232605%, 22.631836%, 78.817749%)" offset="0.695312"/><stop stop-opacity="1" stop-color="rgb(71.479797%, 22.758484%, 79.083252%)" offset="0.699219"/><stop stop-opacity="1" stop-color="rgb(71.728516%, 22.886658%, 79.350281%)" offset="0.703125"/><stop stop-opacity="1" stop-color="rgb(71.975708%, 23.013306%, 79.61731%)" offset="0.707031"/><stop stop-opacity="1" stop-color="rgb(72.224426%, 23.139954%, 79.884338%)" offset="0.710938"/><stop stop-opacity="1" stop-color="rgb(72.473145%, 23.266602%, 80.149841%)" offset="0.714844"/><stop stop-opacity="1" stop-color="rgb(72.721863%, 23.394775%, 80.41687%)" offset="0.71875"/><stop stop-opacity="1" stop-color="rgb(72.969055%, 23.521423%, 80.682373%)" offset="0.722656"/><stop stop-opacity="1" stop-color="rgb(73.217773%, 23.649597%, 80.949402%)" offset="0.726562"/><stop stop-opacity="1" stop-color="rgb(73.464966%, 23.776245%, 81.216431%)" offset="0.730469"/><stop stop-opacity="1" stop-color="rgb(73.713684%, 23.902893%, 81.483459%)" offset="0.734375"/><stop stop-opacity="1" stop-color="rgb(73.962402%, 24.029541%, 81.748962%)" offset="0.738281"/><stop stop-opacity="1" stop-color="rgb(74.211121%, 24.157715%, 82.015991%)" offset="0.742188"/><stop stop-opacity="1" stop-color="rgb(74.458313%, 24.284363%, 82.281494%)" offset="0.746094"/><stop stop-opacity="1" stop-color="rgb(74.707031%, 24.411011%, 82.548523%)" offset="0.75"/><stop stop-opacity="1" stop-color="rgb(74.954224%, 24.537659%, 82.815552%)" offset="0.753906"/><stop stop-opacity="1" stop-color="rgb(75.202942%, 24.665833%, 83.082581%)" offset="0.757812"/><stop stop-opacity="1" stop-color="rgb(75.450134%, 24.79248%, 83.348083%)" offset="0.761719"/><stop stop-opacity="1" stop-color="rgb(75.698853%, 24.920654%, 83.615112%)" offset="0.765625"/><stop stop-opacity="1" stop-color="rgb(75.947571%, 25.047302%, 83.882141%)" offset="0.769531"/><stop stop-opacity="1" stop-color="rgb(76.196289%, 25.17395%, 84.14917%)" offset="0.773438"/><stop stop-opacity="1" stop-color="rgb(76.443481%, 25.300598%, 84.414673%)" offset="0.777344"/><stop stop-opacity="1" stop-color="rgb(76.6922%, 25.428772%, 84.681702%)" offset="0.78125"/><stop stop-opacity="1" stop-color="rgb(76.939392%, 25.55542%, 84.947205%)" offset="0.785156"/><stop stop-opacity="1" stop-color="rgb(77.18811%, 25.683594%, 85.214233%)" offset="0.789062"/><stop stop-opacity="1" stop-color="rgb(77.435303%, 25.810242%, 85.481262%)" offset="0.792969"/><stop stop-opacity="1" stop-color="rgb(77.684021%, 25.93689%, 85.748291%)" offset="0.796875"/><stop stop-opacity="1" stop-color="rgb(77.932739%, 26.063538%, 86.013794%)" offset="0.800781"/><stop stop-opacity="1" stop-color="rgb(78.181458%, 26.191711%, 86.280823%)" offset="0.804688"/><stop stop-opacity="1" stop-color="rgb(78.42865%, 26.318359%, 86.547852%)" offset="0.808594"/><stop stop-opacity="1" stop-color="rgb(78.677368%, 26.446533%, 86.81488%)" offset="0.8125"/><stop stop-opacity="1" stop-color="rgb(78.924561%, 26.573181%, 87.080383%)" offset="0.816406"/><stop stop-opacity="1" stop-color="rgb(79.173279%, 26.699829%, 87.347412%)" offset="0.820312"/><stop stop-opacity="1" stop-color="rgb(79.421997%, 26.826477%, 87.612915%)" offset="0.824219"/><stop stop-opacity="1" stop-color="rgb(79.670715%, 26.954651%, 87.879944%)" offset="0.828125"/><stop stop-opacity="1" stop-color="rgb(79.917908%, 27.081299%, 88.146973%)" offset="0.832031"/><stop stop-opacity="1" stop-color="rgb(80.166626%, 27.209473%, 88.414001%)" offset="0.835938"/><stop stop-opacity="1" stop-color="rgb(80.413818%, 27.336121%, 88.679504%)" offset="0.839844"/><stop stop-opacity="1" stop-color="rgb(80.662537%, 27.462769%, 88.946533%)" offset="0.84375"/><stop stop-opacity="1" stop-color="rgb(80.909729%, 27.589417%, 89.213562%)" offset="0.847656"/><stop stop-opacity="1" stop-color="rgb(81.158447%, 27.71759%, 89.480591%)" offset="0.851562"/><stop stop-opacity="1" stop-color="rgb(81.407166%, 27.844238%, 89.746094%)" offset="0.855469"/><stop stop-opacity="1" stop-color="rgb(81.655884%, 27.972412%, 90.013123%)" offset="0.859375"/><stop stop-opacity="1" stop-color="rgb(81.903076%, 28.09906%, 90.278625%)" offset="0.863281"/><stop stop-opacity="1" stop-color="rgb(82.151794%, 28.225708%, 90.545654%)" offset="0.867188"/><stop stop-opacity="1" stop-color="rgb(82.398987%, 28.352356%, 90.812683%)" offset="0.871094"/><stop stop-opacity="1" stop-color="rgb(82.647705%, 28.48053%, 91.079712%)" offset="0.875"/><stop stop-opacity="1" stop-color="rgb(82.894897%, 28.607178%, 91.345215%)" offset="0.878906"/><stop stop-opacity="1" stop-color="rgb(83.143616%, 28.735352%, 91.612244%)" offset="0.882812"/><stop stop-opacity="1" stop-color="rgb(83.392334%, 28.862%, 91.877747%)" offset="0.886719"/><stop stop-opacity="1" stop-color="rgb(83.641052%, 28.988647%, 92.144775%)" offset="0.890625"/><stop stop-opacity="1" stop-color="rgb(83.888245%, 29.115295%, 92.411804%)" offset="0.894531"/><stop stop-opacity="1" stop-color="rgb(84.136963%, 29.243469%, 92.678833%)" offset="0.898438"/><stop stop-opacity="1" stop-color="rgb(84.384155%, 29.370117%, 92.944336%)" offset="0.902344"/><stop stop-opacity="1" stop-color="rgb(84.632874%, 29.498291%, 93.211365%)" offset="0.90625"/><stop stop-opacity="1" stop-color="rgb(84.881592%, 29.624939%, 93.478394%)" offset="0.910156"/><stop stop-opacity="1" stop-color="rgb(85.13031%, 29.751587%, 93.745422%)" offset="0.914062"/><stop stop-opacity="1" stop-color="rgb(85.377502%, 29.878235%, 94.010925%)" offset="0.917969"/><stop stop-opacity="1" stop-color="rgb(85.626221%, 30.006409%, 94.277954%)" offset="0.921875"/><stop stop-opacity="1" stop-color="rgb(85.873413%, 30.133057%, 94.543457%)" offset="0.925781"/><stop stop-opacity="1" stop-color="rgb(86.122131%, 30.26123%, 94.810486%)" offset="0.929688"/><stop stop-opacity="1" stop-color="rgb(86.369324%, 30.387878%, 95.077515%)" offset="0.933594"/><stop stop-opacity="1" stop-color="rgb(86.618042%, 30.514526%, 95.344543%)" offset="0.9375"/><stop stop-opacity="1" stop-color="rgb(86.86676%, 30.641174%, 95.610046%)" offset="0.941406"/><stop stop-opacity="1" stop-color="rgb(87.115479%, 30.769348%, 95.877075%)" offset="0.945312"/><stop stop-opacity="1" stop-color="rgb(87.362671%, 30.895996%, 96.144104%)" offset="0.949219"/><stop stop-opacity="1" stop-color="rgb(87.611389%, 31.02417%, 96.411133%)" offset="0.953125"/><stop stop-opacity="1" stop-color="rgb(87.858582%, 31.150818%, 96.676636%)" offset="0.957031"/><stop stop-opacity="1" stop-color="rgb(88.1073%, 31.277466%, 96.943665%)" offset="0.960938"/><stop stop-opacity="1" stop-color="rgb(88.354492%, 31.404114%, 97.209167%)" offset="0.964844"/><stop stop-opacity="1" stop-color="rgb(88.60321%, 31.532288%, 97.476196%)" offset="0.96875"/><stop stop-opacity="1" stop-color="rgb(88.851929%, 31.658936%, 97.743225%)" offset="0.972656"/><stop stop-opacity="1" stop-color="rgb(89.100647%, 31.785583%, 98.010254%)" offset="0.976562"/><stop stop-opacity="1" stop-color="rgb(89.347839%, 31.912231%, 98.275757%)" offset="0.980469"/><stop stop-opacity="1" stop-color="rgb(89.596558%, 32.040405%, 98.542786%)" offset="0.984375"/><stop stop-opacity="1" stop-color="rgb(89.84375%, 32.167053%, 98.809814%)" offset="0.988281"/><stop stop-opacity="1" stop-color="rgb(90.092468%, 32.295227%, 99.076843%)" offset="0.992188"/><stop stop-opacity="1" stop-color="rgb(90.341187%, 32.421875%, 99.342346%)" offset="0.996094"/><stop stop-opacity="1" stop-color="rgb(90.589905%, 32.548523%, 99.609375%)" offset="1"/></linearGradient><clipPath id="b0e71001ac"><path d="M 300.480469 643.632812 L 1035.011719 643.632812 L 1035.011719 1228.746094 L 300.480469 1228.746094 Z M 300.480469 643.632812 " clip-rule="nonzero"/></clipPath><clipPath id="0a82dd24fc"><path d="M 300.480469 494.207031 L 1035.011719 494.207031 L 1035.011719 643.820312 L 300.480469 643.820312 Z M 300.480469 494.207031 " clip-rule="nonzero"/></clipPath><clipPath id="4d710f8242"><path d="M 484 419.210938 L 555 419.210938 L 555 573 L 484 573 Z M 484 419.210938 " clip-rule="nonzero"/></clipPath><clipPath id="4055bc0dea"><path d="M 519 419.210938 L 555 419.210938 L 555 573 L 519 573 Z M 519 419.210938 " clip-rule="nonzero"/></clipPath><clipPath id="f06231314c"><path d="M 775 419.210938 L 846 419.210938 L 846 573 L 775 573 Z M 775 419.210938 " clip-rule="nonzero"/></clipPath><clipPath id="79491732ae"><path d="M 810 419.210938 L 846 419.210938 L 846 573 L 810 573 Z M 810 419.210938 " clip-rule="nonzero"/></clipPath></defs><g clip-path="url(#27382f73aa)"><path fill="#ffffff" d="M 0.257812 0 L 1335.242188 0 L 1335.242188 1309.5 L 0.257812 1309.5 Z M 0.257812 0 " fill-opacity="1" fill-rule="nonzero"/><path fill="url(#fdb8a7da26)" d="M 0.257812 0 L 0.257812 1309.5 L 1335.242188 1309.5 L 1335.242188 0 Z M 0.257812 0 " fill-rule="nonzero"/></g><g fill="#ffffff" fill-opacity="1"><g transform="translate(512.956682, 315.43412)"><g><path d="M 63.046875 -230.234375 C 69.296875 -228.671875 73.65625 -225.21875 76.125 -219.875 C 78.59375 -214.539062 79.828125 -207.972656 79.828125 -200.171875 C 78.265625 -190.535156 75.144531 -182.597656 70.46875 -176.359375 C 63.175781 -166.460938 52.632812 -161.515625 38.84375 -161.515625 C 31.03125 -161.515625 23.867188 -164.3125 17.359375 -169.90625 C 10.859375 -175.507812 7.609375 -182.34375 7.609375 -190.40625 C 7.609375 -196.914062 9.492188 -202.707031 13.265625 -207.78125 C 17.046875 -212.851562 21.925781 -215.390625 27.90625 -215.390625 C 32.851562 -215.390625 36.5625 -213.890625 39.03125 -210.890625 C 41.507812 -207.898438 42.75 -204.328125 42.75 -200.171875 C 42.75 -197.046875 41.378906 -194.503906 38.640625 -192.546875 C 35.910156 -190.597656 32.59375 -189.625 28.6875 -189.625 C 24.53125 -191.1875 20.5 -192.75 16.59375 -194.3125 C 16.59375 -191.445312 18.023438 -189.234375 20.890625 -187.671875 C 25.304688 -185.066406 32.59375 -183.765625 42.75 -183.765625 C 48.46875 -183.765625 53.800781 -184.675781 58.75 -186.5 C 66.039062 -189.101562 69.6875 -192.878906 69.6875 -197.828125 C 68.90625 -201.210938 67.664062 -203.550781 65.96875 -204.84375 C 64.28125 -206.144531 61.875 -207.1875 58.75 -207.96875 C 50.164062 -210.050781 45.875 -213.4375 45.875 -218.125 C 45.875 -220.726562 47.5625 -223.394531 50.9375 -226.125 C 54.320312 -228.863281 58.359375 -230.234375 63.046875 -230.234375 Z M 13.859375 -85 C 13.859375 -70.6875 15.03125 -60.410156 17.375 -54.171875 C 21.019531 -44.796875 27.914062 -40.109375 38.0625 -40.109375 C 44.3125 -40.109375 48.800781 -41.28125 51.53125 -43.625 C 54.257812 -45.96875 55.625 -48.960938 55.625 -52.609375 C 55.625 -54.691406 55.101562 -57.550781 54.0625 -61.1875 C 51.457031 -63.007812 48.988281 -63.921875 46.65625 -63.921875 C 43.269531 -63.921875 41.054688 -61.96875 40.015625 -58.0625 C 40.015625 -57.539062 39.882812 -56.632812 39.625 -55.34375 C 32.851562 -55.34375 28.164062 -57.160156 25.5625 -60.796875 C 22.96875 -64.441406 21.671875 -69.78125 21.671875 -76.8125 C 21.671875 -83.3125 23.617188 -88.382812 27.515625 -92.03125 C 31.421875 -95.675781 35.976562 -97.5 41.1875 -97.5 C 50.8125 -97.5 57.316406 -92.160156 60.703125 -81.484375 C 62.523438 -75.503906 63.4375 -65.878906 63.4375 -52.609375 C 63.4375 -41.148438 61.742188 -30.609375 58.359375 -20.984375 C 53.410156 -6.929688 45.734375 0.09375 35.328125 0.09375 C 24.660156 0.09375 16.203125 -8.101562 9.953125 -24.5 C 8.128906 -29.957031 6.175781 -38.285156 4.09375 -49.484375 L 4.09375 -123.65625 C 6.957031 -125.738281 9.171875 -127.429688 10.734375 -128.734375 C 20.878906 -137.316406 27.773438 -144.734375 31.421875 -150.984375 C 35.328125 -147.859375 39.363281 -145.253906 43.53125 -143.171875 C 49.769531 -140.046875 55.363281 -138.484375 60.3125 -138.484375 C 63.957031 -138.484375 67.210938 -139.394531 70.078125 -141.21875 C 64.347656 -121.175781 54.847656 -111.15625 41.578125 -111.15625 C 39.492188 -111.15625 36.628906 -111.804688 32.984375 -113.109375 C 29.335938 -114.410156 25.957031 -115.0625 22.84375 -115.0625 C 19.71875 -114.539062 17.4375 -111.351562 16 -105.5 C 14.570312 -99.644531 13.859375 -92.8125 13.859375 -85 Z M 13.859375 -85 "/></g></g></g><g fill="#ffffff" fill-opacity="1"><g transform="translate(596.890907, 315.43412)"><g><path d="M 62.078125 -150.78125 C 73.265625 -149.21875 84.972656 -145.832031 97.203125 -140.625 C 109.429688 -135.425781 120.234375 -129.179688 129.609375 -121.890625 C 129.609375 -115.910156 129.347656 -110.25 128.828125 -104.90625 C 128.304688 -99.570312 127.785156 -96.382812 127.265625 -95.34375 C 120.492188 -77.90625 110.210938 -65.414062 96.421875 -57.875 C 83.929688 -51.101562 67.796875 -47.71875 48.015625 -47.71875 C 55.304688 -40.957031 59.992188 -36.925781 62.078125 -35.625 C 66.492188 -33.019531 72.476562 -31.71875 80.03125 -31.71875 C 90.175781 -31.71875 99.804688 -37.832031 108.921875 -50.0625 C 112.296875 -54.75 116.066406 -60.992188 120.234375 -68.796875 C 124.921875 -70.359375 128.046875 -71.398438 129.609375 -71.921875 C 125.703125 -47.460938 118.285156 -28.988281 107.359375 -16.5 C 97.722656 -5.5625 86.269531 -0.09375 73 -0.09375 C 57.125 -0.09375 43.523438 -5.234375 32.203125 -15.515625 C 20.878906 -25.796875 13.398438 -39.265625 9.765625 -55.921875 C 36.304688 -59.566406 54.390625 -63.082031 64.015625 -66.46875 C 85.097656 -73.75 95.640625 -84.285156 95.640625 -98.078125 C 95.640625 -104.328125 92 -109.796875 84.71875 -114.484375 C 76.382812 -119.941406 64.929688 -122.671875 50.359375 -122.671875 C 45.671875 -122.671875 41.632812 -121.109375 38.25 -117.984375 C 34.875 -114.867188 33.1875 -111.097656 33.1875 -106.671875 C 33.1875 -104.066406 33.96875 -101.332031 35.53125 -98.46875 C 38.644531 -95.34375 41.503906 -93.78125 44.109375 -93.78125 C 47.492188 -93.78125 49.1875 -98.597656 49.1875 -108.234375 C 49.1875 -111.359375 51.140625 -112.921875 55.046875 -112.921875 C 59.734375 -112.921875 63.632812 -111.226562 66.75 -107.84375 C 70.914062 -103.414062 73 -96.910156 73 -88.328125 C 70.914062 -76.085938 61.675781 -69.96875 45.28125 -69.96875 C 36.175781 -69.96875 28.4375 -73.414062 22.0625 -80.3125 C 15.6875 -87.21875 12.5 -94.570312 12.5 -102.375 C 12.5 -107.582031 14.445312 -112.007812 18.34375 -115.65625 C 26.9375 -123.71875 41.515625 -135.425781 62.078125 -150.78125 Z M 62.078125 -150.78125 "/></g></g></g><g fill="#ffffff" fill-opacity="1"><g transform="translate(733.528029, 315.43412)"><g><path d="M -48.015625 15.515625 C -36.828125 15.515625 -29.28125 17.726562 -25.375 22.15625 C -21.46875 26.582031 -19.515625 32.957031 -19.515625 41.28125 C -19.515625 46.226562 -22.050781 51.890625 -27.125 58.265625 C -32.207031 64.640625 -36.957031 67.828125 -41.375 67.828125 C -43.195312 67.828125 -44.890625 67.046875 -46.453125 65.484375 C -48.796875 63.140625 -51.660156 61.1875 -55.046875 59.625 C -62.066406 56.507812 -65.96875 54.300781 -66.75 53 L -66.75 28.015625 C -67.789062 28.015625 -68.632812 28.078125 -69.28125 28.203125 C -69.9375 28.335938 -70.785156 28.664062 -71.828125 29.1875 C -71.828125 41.9375 -73.648438 50.785156 -77.296875 55.734375 C -82.242188 62.492188 -91.742188 65.875 -105.796875 65.875 C -119.585938 65.875 -129.347656 57.804688 -135.078125 41.671875 C -136.890625 36.460938 -138.445312 28.265625 -139.75 17.078125 C -135.070312 23.847656 -129.867188 29.117188 -124.140625 32.890625 C -118.410156 36.660156 -112.296875 38.546875 -105.796875 38.546875 C -101.109375 38.546875 -96.941406 37.113281 -93.296875 34.25 C -87.835938 30.09375 -84.457031 23.976562 -83.15625 15.90625 L -65.96875 15.90625 L -65.96875 5.765625 L -48.015625 5.765625 Z M -48.015625 42.0625 C -45.929688 41.539062 -44.5 41.019531 -43.71875 40.5 C -40.851562 38.9375 -39.421875 36.851562 -39.421875 34.25 L -40.59375 29.96875 C -41.113281 29.1875 -42.023438 28.726562 -43.328125 28.59375 C -44.628906 28.46875 -46.191406 28.273438 -48.015625 28.015625 Z M -48.015625 42.0625 "/></g></g></g><g fill="#ffffff" fill-opacity="1"><g transform="translate(736.260779, 315.43412)"><g><path d="M 10.546875 -123.5625 C 15.222656 -127.457031 18.863281 -130.578125 21.46875 -132.921875 C 29.800781 -140.472656 35.265625 -146.585938 37.859375 -151.265625 C 41.765625 -148.148438 45.800781 -145.550781 49.96875 -143.46875 C 56.476562 -140.082031 62.070312 -138.390625 66.75 -138.390625 C 70.65625 -138.390625 73.910156 -139.300781 76.515625 -141.125 C 70.785156 -121.082031 61.285156 -111.0625 48.015625 -111.0625 C 45.410156 -111.0625 42.15625 -111.710938 38.25 -113.015625 C 34.351562 -114.316406 31.363281 -114.96875 29.28125 -114.96875 C 25.894531 -114.96875 23.03125 -113.726562 20.6875 -111.25 C 18.34375 -108.78125 16.78125 -105.851562 16 -102.46875 C 24.851562 -106.894531 31.625 -109.109375 36.3125 -109.109375 C 43.59375 -109.109375 49.1875 -107.804688 53.09375 -105.203125 C 57 -101.566406 59.863281 -98.835938 61.6875 -97.015625 L 61.6875 -18.9375 C 61.6875 -13.207031 59.664062 -8.585938 55.625 -5.078125 C 51.59375 -1.566406 47.753906 0.1875 44.109375 0.1875 L 41.765625 -0.96875 C 40.460938 -3.570312 36.820312 -7.476562 30.84375 -12.6875 C 17.570312 -23.875 10.546875 -30.117188 9.765625 -31.421875 L 9.765625 -49.78125 C 17.304688 -51.332031 24.851562 -52.890625 32.40625 -54.453125 C 42.03125 -56.796875 49.835938 -60.3125 55.828125 -65 C 48.535156 -70.726562 41.640625 -73.59375 35.140625 -73.59375 C 30.972656 -73.59375 26.9375 -72.8125 23.03125 -71.25 C 21.207031 -70.46875 17.046875 -68.253906 10.546875 -64.609375 Z M 55.046875 -43.921875 L 55.828125 -55.625 C 54.265625 -55.101562 52.632812 -54.515625 50.9375 -53.859375 C 49.25 -53.210938 48.40625 -52.109375 48.40625 -50.546875 C 48.40625 -48.992188 49.445312 -47.4375 51.53125 -45.875 C 52.050781 -45.351562 53.222656 -44.703125 55.046875 -43.921875 Z M 55.046875 -43.921875 "/></g></g></g><g clip-path="url(#b0e71001ac)"><path fill="#ffffff" d="M 342.800781 1228.921875 L 992.691406 1228.921875 C 1016.0625 1228.921875 1035.011719 1209.976562 1035.011719 1186.605469 L 1035.011719 643.648438 L 300.480469 643.648438 L 300.480469 1186.605469 C 300.480469 1209.976562 319.425781 1228.921875 342.800781 1228.921875 " fill-opacity="1" fill-rule="nonzero"/></g><g clip-path="url(#0a82dd24fc)"><path fill="#ff3131" d="M 300.480469 536.710938 L 300.480469 643.648438 L 1035.011719 643.648438 L 1035.011719 536.710938 C 1035.011719 513.339844 1016.0625 494.390625 992.691406 494.390625 L 342.800781 494.390625 C 319.425781 494.390625 300.480469 513.339844 300.480469 536.710938 " fill-opacity="1" fill-rule="nonzero"/></g><g clip-path="url(#4d710f8242)"><path fill="#3f2b2f" d="M 519.558594 572.265625 C 500.082031 572.265625 484.292969 556.480469 484.292969 537 L 484.292969 454.476562 C 484.292969 434.996094 500.082031 419.210938 519.558594 419.210938 C 539.039062 419.210938 554.828125 434.996094 554.828125 454.476562 L 554.828125 537 C 554.828125 556.480469 539.039062 572.265625 519.558594 572.265625 " fill-opacity="1" fill-rule="nonzero"/></g><g clip-path="url(#4055bc0dea)"><path fill="#3f2b2f" d="M 519.558594 419.210938 C 539.039062 419.210938 554.828125 434.996094 554.828125 454.476562 L 554.828125 537 C 554.828125 556.480469 539.039062 572.265625 519.558594 572.265625 L 519.558594 419.210938 " fill-opacity="1" fill-rule="nonzero"/></g><g clip-path="url(#f06231314c)"><path fill="#3f2b2f" d="M 810.714844 572.269531 C 791.238281 572.269531 775.453125 556.484375 775.453125 537.003906 L 775.453125 454.480469 C 775.453125 435 791.238281 419.214844 810.714844 419.214844 C 830.195312 419.214844 845.984375 435 845.984375 454.480469 L 845.984375 537.003906 C 845.984375 556.484375 830.195312 572.269531 810.714844 572.269531 " fill-opacity="1" fill-rule="nonzero"/></g><g clip-path="url(#79491732ae)"><path fill="#3f2b2f" d="M 810.714844 419.214844 C 830.195312 419.214844 845.984375 435 845.984375 454.480469 L 845.984375 537.003906 C 845.984375 556.484375 830.195312 572.269531 810.714844 572.269531 L 810.714844 419.214844 " fill-opacity="1" fill-rule="nonzero"/></g><g fill="#ff3131" fill-opacity="1"><g transform="translate(339.865476, 1022.208383)"><g><path d="M 24.796875 -112.625 C 24.859375 -112.882812 28.660156 -115.75 36.203125 -121.21875 C 39.523438 -123.945312 42.4375 -126.644531 44.9375 -129.3125 C 47.445312 -131.976562 49.644531 -134.710938 51.53125 -137.515625 C 52.832031 -136.472656 54.457031 -135.394531 56.40625 -134.28125 C 58.363281 -133.175781 60.640625 -132.070312 63.234375 -130.96875 C 68.578125 -127.78125 73.976562 -126.1875 79.4375 -126.1875 C 80.550781 -126.1875 82.503906 -126.445312 85.296875 -126.96875 C 86.535156 -127.226562 87.625 -127.488281 88.5625 -127.75 C 89.507812 -128.007812 90.34375 -128.300781 91.0625 -128.625 C 88.78125 -119.976562 85.234375 -112.722656 80.421875 -106.859375 C 75.472656 -100.742188 69.390625 -97.6875 62.171875 -97.6875 C 58.648438 -97.6875 55.6875 -98.890625 53.28125 -101.296875 C 50.75 -103.316406 47.5625 -104.488281 43.71875 -104.8125 C 40.070312 -104.8125 37.242188 -103.640625 35.234375 -101.296875 C 33.015625 -99.085938 31.421875 -96.488281 30.453125 -93.5 C 33.703125 -95.125 37.769531 -95.9375 42.65625 -95.9375 L 51.53125 -95.9375 C 58.75 -95.675781 64.800781 -93.882812 69.6875 -90.5625 C 74.4375 -87.1875 76.941406 -81.269531 77.203125 -72.8125 L 77.203125 3.03125 C 77.203125 7.1875 76.257812 10.597656 74.375 13.265625 C 73.332031 14.566406 72.109375 15.96875 70.703125 17.46875 C 69.304688 18.96875 67.695312 20.53125 65.875 22.15625 C 67.695312 23.71875 69.484375 25.296875 71.234375 26.890625 C 72.992188 28.484375 74.722656 30.09375 76.421875 31.71875 C 78.046875 33.40625 79.71875 35.015625 81.4375 36.546875 C 83.164062 38.078125 84.972656 39.492188 86.859375 40.796875 C 90.828125 43.140625 95.414062 44.992188 100.625 46.359375 C 105.632812 47.859375 111.617188 48.738281 118.578125 49 C 123.453125 48.863281 127.757812 48.484375 131.5 47.859375 C 135.25 47.242188 138.425781 46.382812 141.03125 45.28125 C 145.96875 43.457031 149.285156 41.210938 150.984375 38.546875 C 154.109375 32.828125 155.210938 29.410156 154.296875 28.296875 C 150.460938 28.296875 147.4375 28.984375 145.21875 30.359375 C 144.175781 31.066406 143.195312 31.859375 142.28125 32.734375 C 141.375 33.617188 140.5 34.515625 139.65625 35.421875 C 138.75 36.335938 137.820312 37.21875 136.875 38.0625 C 135.9375 38.90625 134.945312 39.71875 133.90625 40.5 C 131.5 41.863281 128.3125 42.644531 124.34375 42.84375 C 119.394531 42.382812 114.96875 40.597656 111.0625 37.484375 C 106.570312 34.679688 104.328125 31.617188 104.328125 28.296875 C 104.328125 22.835938 107.382812 18.644531 113.5 15.71875 C 119.03125 12.914062 125.960938 11.515625 134.296875 11.515625 C 143.015625 11.515625 150.039062 13.789062 155.375 18.34375 C 160.570312 22.96875 163.171875 28.988281 163.171875 36.40625 C 163.171875 46.613281 158.648438 55.914062 149.609375 64.3125 C 140.566406 73.351562 127.488281 78.003906 110.375 78.265625 C 104.84375 78.140625 99.539062 77.488281 94.46875 76.3125 C 89.394531 75.144531 84.382812 73.519531 79.4375 71.4375 C 74.363281 69.425781 69.582031 67.25 65.09375 64.90625 C 60.601562 62.5625 56.3125 59.988281 52.21875 57.1875 C 48.113281 54.257812 44.46875 51.539062 41.28125 49.03125 C 38.09375 46.53125 35.296875 44.144531 32.890625 41.875 C 27.941406 37.3125 25.46875 34.445312 25.46875 33.28125 C 28.007812 31.132812 31.585938 29.117188 36.203125 27.234375 C 38.421875 26.378906 40.632812 25.445312 42.84375 24.4375 C 45.050781 23.4375 47.265625 22.316406 49.484375 21.078125 C 54.234375 18.546875 58.234375 15.359375 61.484375 11.515625 C 64.609375 7.941406 66.171875 3.320312 66.171875 -2.34375 L 66.171875 -56.015625 C 62.398438 -62.910156 55.597656 -66.359375 45.765625 -66.359375 C 42.191406 -66.359375 39.132812 -65.875 36.59375 -64.90625 C 35.289062 -64.25 33.644531 -63.429688 31.65625 -62.453125 C 29.675781 -61.484375 27.390625 -60.28125 24.796875 -58.84375 Z M 24.796875 -112.625 "/></g></g></g><g fill="#ff3131" fill-opacity="1"><g transform="translate(415.991861, 1022.208383)"><g><path d="M 111.84375 -138.09375 C 113.207031 -137.1875 114.847656 -136.128906 116.765625 -134.921875 C 118.691406 -133.722656 120.890625 -132.40625 123.359375 -130.96875 C 128.109375 -127.582031 133.085938 -125.890625 138.296875 -125.890625 C 141.804688 -125.890625 144.992188 -126.929688 147.859375 -129.015625 C 147.335938 -126.929688 146.75 -124.945312 146.09375 -123.0625 C 145.445312 -121.175781 144.703125 -119.390625 143.859375 -117.703125 C 143.015625 -115.878906 142.132812 -114.203125 141.21875 -112.671875 C 140.3125 -111.140625 139.335938 -109.722656 138.296875 -108.421875 C 134.328125 -102.890625 128.695312 -100.125 121.40625 -100.125 C 117.957031 -100.125 115.128906 -101.101562 112.921875 -103.0625 C 110.960938 -104.164062 107.867188 -104.878906 103.640625 -105.203125 C 100.003906 -105.203125 97.175781 -104.03125 95.15625 -101.6875 C 92.875 -99.414062 91.410156 -96.816406 90.765625 -93.890625 C 102.472656 -96.941406 108.6875 -98.304688 109.40625 -97.984375 C 122.675781 -97.785156 131.6875 -93.492188 136.4375 -85.109375 C 140.46875 -76.648438 142.484375 -67.210938 142.484375 -56.796875 C 142.484375 -52.441406 141.570312 -47.335938 139.75 -41.484375 C 138.644531 -38.296875 137.242188 -35.125 135.546875 -31.96875 C 133.859375 -28.8125 131.878906 -25.640625 129.609375 -22.453125 C 125.441406 -16.328125 119.648438 -11.21875 112.234375 -7.125 C 104.679688 -2.632812 95.148438 -0.390625 83.640625 -0.390625 C 68.671875 -0.390625 55.394531 -4.425781 43.8125 -12.5 C 32.164062 -20.039062 23.835938 -30.515625 18.828125 -43.921875 C 23.710938 -44.441406 28.140625 -45.1875 32.109375 -46.15625 C 36.078125 -47.132812 39.625 -48.273438 42.75 -49.578125 C 48.726562 -51.921875 54.191406 -55.957031 59.140625 -61.6875 C 53.867188 -64.800781 48.175781 -66.359375 42.0625 -66.359375 C 33.738281 -66.097656 25.609375 -64.632812 17.671875 -61.96875 L 17.671875 -112.625 C 17.796875 -112.75 18.785156 -113.523438 20.640625 -114.953125 C 22.492188 -116.390625 25.210938 -118.476562 28.796875 -121.21875 C 32.109375 -123.945312 35.015625 -126.644531 37.515625 -129.3125 C 40.023438 -131.976562 42.222656 -134.710938 44.109375 -137.515625 C 45.410156 -136.472656 47.019531 -135.394531 48.9375 -134.28125 C 50.863281 -133.175781 53.191406 -132.070312 55.921875 -130.96875 C 61.054688 -127.78125 66.296875 -126.1875 71.640625 -126.1875 C 75.210938 -126.1875 78.398438 -127 81.203125 -128.625 C 78.722656 -119.90625 75.40625 -113.171875 71.25 -108.421875 C 66.757812 -103.085938 60.898438 -100.421875 53.671875 -100.421875 C 50.222656 -100.421875 47.394531 -101.203125 45.1875 -102.765625 C 43.164062 -103.804688 40.207031 -104.488281 36.3125 -104.8125 C 32.726562 -104.8125 29.863281 -103.640625 27.71875 -101.296875 C 25.25 -99.023438 23.6875 -96.425781 23.03125 -93.5 C 35.914062 -96.75 42.488281 -98.242188 42.75 -97.984375 C 50.03125 -97.984375 56.632812 -96.195312 62.5625 -92.625 C 68.28125 -88.914062 71.304688 -82.40625 71.640625 -73.09375 C 71.640625 -70.363281 71.117188 -67.535156 70.078125 -64.609375 C 69.742188 -63.691406 69.316406 -62.710938 68.796875 -61.671875 C 68.285156 -60.640625 67.671875 -59.472656 66.953125 -58.171875 C 65.253906 -55.109375 62.75 -51.921875 59.4375 -48.609375 C 64.769531 -42.296875 70.234375 -38.457031 75.828125 -37.09375 C 78.566406 -36.175781 81.460938 -35.503906 84.515625 -35.078125 C 87.578125 -34.660156 90.894531 -34.515625 94.46875 -34.640625 C 101.757812 -35.097656 109.015625 -36.953125 116.234375 -40.203125 C 123.523438 -43.585938 127.753906 -47.882812 128.921875 -53.09375 C 128.597656 -58.300781 126.222656 -62.007812 121.796875 -64.21875 C 117.304688 -66.101562 113.40625 -67.144531 110.09375 -67.34375 C 109.894531 -67.34375 106.640625 -67.242188 100.328125 -67.046875 C 98.960938 -66.921875 97.578125 -66.773438 96.171875 -66.609375 C 94.773438 -66.441406 93.332031 -66.226562 91.84375 -65.96875 C 90.40625 -65.644531 89.066406 -65.269531 87.828125 -64.84375 C 86.597656 -64.425781 85.429688 -63.988281 84.328125 -63.53125 L 84.328125 -112.328125 C 84.515625 -112.460938 85.550781 -113.242188 87.4375 -114.671875 C 89.332031 -116.109375 92.132812 -118.289062 95.84375 -121.21875 C 102.675781 -126.613281 108.007812 -132.238281 111.84375 -138.09375 Z M 111.84375 -138.09375 "/></g></g></g><g fill="#ff3131" fill-opacity="1"><g transform="translate(560.631995, 1022.208383)"><g><path d="M 143.171875 -13.5625 C 143.171875 -11.8125 142.488281 -10.25 141.125 -8.875 C 139.757812 -7.3125 137.835938 -5.816406 135.359375 -4.390625 C 130.546875 -1.460938 126.546875 0 123.359375 0 C 121.148438 0 120.046875 -1.039062 120.046875 -3.125 C 120.046875 -5.59375 119.003906 -7.867188 116.921875 -9.953125 C 114.640625 -12.160156 111.90625 -14.304688 108.71875 -16.390625 C 105.789062 -18.796875 102.765625 -21.53125 99.640625 -24.59375 C 98.210938 -26.019531 96.910156 -27.578125 95.734375 -29.265625 C 94.566406 -30.960938 93.492188 -32.753906 92.515625 -34.640625 C 92.066406 -35.492188 91.84375 -36.535156 91.84375 -37.765625 C 91.84375 -40.691406 93.304688 -42.835938 96.234375 -44.203125 C 97.597656 -44.859375 99.15625 -45.445312 100.90625 -45.96875 C 101.625 -46.226562 102.390625 -46.4375 103.203125 -46.59375 C 104.015625 -46.757812 104.878906 -46.910156 105.796875 -47.046875 C 107.804688 -47.367188 109.851562 -47.804688 111.9375 -48.359375 C 114.019531 -48.910156 116.132812 -49.578125 118.28125 -50.359375 C 122.582031 -51.265625 126.359375 -53.148438 129.609375 -56.015625 C 125.117188 -57.316406 120.835938 -58.519531 116.765625 -59.625 C 112.703125 -60.738281 108.816406 -61.75 105.109375 -62.65625 C 101.273438 -63.695312 97.375 -64.578125 93.40625 -65.296875 C 91.25 -65.554688 89.066406 -65.734375 86.859375 -65.828125 C 84.648438 -65.921875 82.40625 -65.96875 80.125 -65.96875 C 67.957031 -66.226562 57.742188 -65.546875 49.484375 -63.921875 C 41.410156 -61.910156 35.328125 -57.128906 31.234375 -49.578125 C 30.578125 -48.078125 30.035156 -46.613281 29.609375 -45.1875 C 29.191406 -43.757812 28.921875 -42.394531 28.796875 -41.09375 C 29.054688 -30.289062 32.597656 -24.429688 39.421875 -23.515625 C 40.921875 -23.191406 42.238281 -22.929688 43.375 -22.734375 C 44.519531 -22.546875 45.484375 -22.453125 46.265625 -22.453125 C 47.753906 -22.453125 49.085938 -23.164062 50.265625 -24.59375 C 50.585938 -25.238281 50.878906 -25.820312 51.140625 -26.34375 C 51.398438 -26.863281 51.660156 -27.351562 51.921875 -27.8125 C 51.722656 -30.414062 50.679688 -31.71875 48.796875 -31.71875 C 47.953125 -31.582031 47.070312 -31.484375 46.15625 -31.421875 C 45.25 -31.359375 44.34375 -31.328125 43.4375 -31.328125 C 42 -31.128906 40.660156 -31.84375 39.421875 -33.46875 C 38.054688 -35.101562 37.375 -38.457031 37.375 -43.53125 C 37.375 -48.539062 39.75 -52.441406 44.5 -55.234375 C 48.863281 -57.640625 54.070312 -58.84375 60.125 -58.84375 C 67.019531 -58.582031 72.484375 -56.078125 76.515625 -51.328125 C 80.546875 -46.128906 82.5625 -39.914062 82.5625 -32.6875 C 82.5625 -24.5625 80.1875 -17.832031 75.4375 -12.5 C 70.363281 -6.445312 63.597656 -2.507812 55.140625 -0.6875 C 53.515625 -0.226562 51.628906 0 49.484375 0 C 44.410156 0 39.890625 -1.691406 35.921875 -5.078125 C 31.617188 -8.003906 28.035156 -12.003906 25.171875 -17.078125 C 19.253906 -27.679688 16.296875 -38.875 16.296875 -50.65625 C 17.140625 -64.382812 22.992188 -75.410156 33.859375 -83.734375 C 44.335938 -91.867188 56.179688 -96.296875 69.390625 -97.015625 C 83.441406 -97.015625 96.679688 -95.84375 109.109375 -93.5 C 121.535156 -90.570312 132.890625 -84.257812 143.171875 -74.5625 Z M 37.375 -86.375 C 31.519531 -90.082031 24.953125 -92.164062 17.671875 -92.625 C 17.671875 -96.332031 17.632812 -99.988281 17.5625 -103.59375 C 17.5 -107.207031 17.40625 -110.800781 17.28125 -114.375 C 19.289062 -116.332031 21.921875 -118.382812 25.171875 -120.53125 C 26.867188 -121.507812 28.628906 -122.4375 30.453125 -123.3125 C 32.273438 -124.1875 34.226562 -125.046875 36.3125 -125.890625 C 40.800781 -127.785156 45.09375 -129.753906 49.1875 -131.796875 C 53.289062 -133.847656 57.289062 -135.945312 61.1875 -138.09375 C 72.050781 -131.59375 81.582031 -126.8125 89.78125 -123.75 C 94.53125 -125.894531 98.046875 -127.648438 100.328125 -129.015625 C 102.734375 -130.054688 107.023438 -133.082031 113.203125 -138.09375 C 114.703125 -136.988281 116.394531 -135.816406 118.28125 -134.578125 C 120.164062 -133.347656 122.316406 -132.015625 124.734375 -130.578125 C 128.890625 -127.191406 133.765625 -125.40625 139.359375 -125.21875 C 142.421875 -125.21875 146.195312 -126.257812 150.6875 -128.34375 C 150.6875 -120.332031 147.953125 -113.300781 142.484375 -107.25 C 137.023438 -101.070312 129.898438 -97.882812 121.109375 -97.6875 C 120.066406 -98.144531 118.539062 -98.957031 116.53125 -100.125 C 115.425781 -100.78125 114.285156 -101.398438 113.109375 -101.984375 C 111.941406 -102.566406 110.707031 -103.15625 109.40625 -103.75 C 106.601562 -105.238281 104.046875 -106.421875 101.734375 -107.296875 C 99.429688 -108.179688 97.335938 -108.6875 95.453125 -108.8125 C 94.210938 -108.8125 92.78125 -108.390625 91.15625 -107.546875 C 89.070312 -106.441406 86.925781 -105.175781 84.71875 -103.75 C 80.15625 -100.164062 76.148438 -98.242188 72.703125 -97.984375 C 69.972656 -99.285156 67.289062 -100.664062 64.65625 -102.125 C 62.019531 -103.59375 59.46875 -105.078125 57 -106.578125 C 51.988281 -109.441406 45.675781 -111.003906 38.0625 -111.265625 C 35.65625 -111.128906 33.992188 -110.878906 33.078125 -110.515625 C 32.171875 -110.160156 31.457031 -109.722656 30.9375 -109.203125 C 34.382812 -109.203125 37.34375 -108.550781 39.8125 -107.25 C 41.832031 -105.882812 43.492188 -104.257812 44.796875 -102.375 C 46.878906 -98.082031 47.820312 -95.804688 47.625 -95.546875 C 41.507812 -87.929688 38.09375 -84.875 37.375 -86.375 Z M 124.734375 -36.40625 C 124.734375 -32.894531 126.648438 -30.390625 130.484375 -28.890625 L 130.484375 -43.140625 C 127.097656 -42.222656 125.179688 -39.976562 124.734375 -36.40625 Z M 124.734375 -36.40625 "/></g></g></g><g fill="#ff3131" fill-opacity="1"><g transform="translate(708.20011, 1022.208383)"><g><path d="M -87.15625 -201.828125 C -81.882812 -204.234375 -75.34375 -205.4375 -67.53125 -205.4375 C -57.0625 -205.238281 -46.265625 -201.53125 -35.140625 -194.3125 C -24.015625 -187.019531 -18.222656 -177.976562 -17.765625 -167.1875 C -17.828125 -167.113281 -18.441406 -166.523438 -19.609375 -165.421875 C -20.785156 -164.316406 -22.546875 -162.691406 -24.890625 -160.546875 C -25.929688 -159.628906 -27.050781 -158.78125 -28.25 -158 C -29.457031 -157.21875 -30.710938 -156.503906 -32.015625 -155.859375 C -34.421875 -154.234375 -37.019531 -153.421875 -39.8125 -153.421875 C -41.507812 -153.878906 -43.269531 -154.460938 -45.09375 -155.171875 C -47.238281 -155.828125 -49.484375 -156.507812 -51.828125 -157.21875 C -54.234375 -158.332031 -57.175781 -159.195312 -60.65625 -159.8125 C -64.132812 -160.425781 -68.21875 -160.800781 -72.90625 -160.9375 C -80.257812 -160.675781 -85.722656 -159.4375 -89.296875 -157.21875 C -92.941406 -154.945312 -96.296875 -153.8125 -99.359375 -153.8125 C -103.515625 -153.8125 -106.601562 -155.765625 -108.625 -159.671875 C -111.289062 -163.304688 -112.625 -166.785156 -112.625 -170.109375 C -112.625 -176.941406 -108.914062 -184.425781 -101.5 -192.5625 C -97.65625 -196.195312 -92.875 -199.285156 -87.15625 -201.828125 Z M -83.046875 -182.703125 C -88.054688 -181.140625 -90.988281 -177.394531 -91.84375 -171.46875 C -85.132812 -174.207031 -77.878906 -175.671875 -70.078125 -175.859375 C -62.660156 -175.671875 -55.765625 -174.113281 -49.390625 -171.1875 C -46.390625 -169.625 -43.472656 -168.0625 -40.640625 -166.5 C -37.816406 -164.9375 -34.941406 -163.40625 -32.015625 -161.90625 C -32.015625 -163.988281 -33.28125 -166.394531 -35.8125 -169.125 C -37.375 -170.425781 -39.050781 -171.660156 -40.84375 -172.828125 C -42.632812 -174.003906 -44.570312 -175.144531 -46.65625 -176.25 C -55.300781 -181.195312 -62.128906 -183.800781 -67.140625 -184.0625 C -69.878906 -184.0625 -72.566406 -183.945312 -75.203125 -183.71875 C -77.835938 -183.488281 -80.453125 -183.148438 -83.046875 -182.703125 Z M -83.046875 -182.703125 "/></g></g></g><g fill="#ff3131" fill-opacity="1"><g transform="translate(708.20011, 1022.208383)"><g><path d="M 141.8125 -94.859375 C 141.8125 -87.703125 139.078125 -81.257812 133.609375 -75.53125 C 128.140625 -69.351562 120.203125 -65.941406 109.796875 -65.296875 C 98.085938 -65.035156 91.414062 -69.457031 89.78125 -78.5625 C 89.519531 -87.9375 94.628906 -92.753906 105.109375 -93.015625 C 109.398438 -93.015625 112.097656 -92.65625 113.203125 -91.9375 C 114.179688 -91.21875 114.671875 -90.175781 114.671875 -88.8125 C 114.671875 -87.3125 114.960938 -85.75 115.546875 -84.125 C 115.742188 -82.238281 117.242188 -80.191406 120.046875 -77.984375 C 124.597656 -77.984375 126.972656 -79.800781 127.171875 -83.4375 C 127.171875 -87.925781 125.609375 -91.734375 122.484375 -94.859375 C 119.492188 -97.660156 115.265625 -99.9375 109.796875 -101.6875 C 98.671875 -104.6875 85.722656 -106.1875 70.953125 -106.1875 C 53.054688 -106.445312 39.585938 -103.613281 30.546875 -97.6875 C 40.046875 -97.6875 47.53125 -96.972656 53 -95.546875 C 58.71875 -93.859375 63.367188 -91.710938 66.953125 -89.109375 C 73.585938 -83.578125 76.773438 -77.554688 76.515625 -71.046875 C 76.515625 -67.859375 75.929688 -64.960938 74.765625 -62.359375 C 71.898438 -54.816406 68.9375 -50.234375 65.875 -48.609375 C 64.1875 -47.566406 62.25 -46.457031 60.0625 -45.28125 C 57.882812 -44.113281 55.429688 -42.847656 52.703125 -41.484375 C 53.609375 -38.554688 55.039062 -36.632812 57 -35.71875 C 58.882812 -34.21875 60.738281 -33.46875 62.5625 -33.46875 C 65.550781 -33.46875 68.578125 -34.898438 71.640625 -37.765625 C 73.066406 -38.867188 74.546875 -40.101562 76.078125 -41.46875 C 77.609375 -42.84375 79.21875 -44.34375 80.90625 -45.96875 C 82.726562 -47.65625 84.710938 -49.296875 86.859375 -50.890625 C 89.003906 -52.484375 91.3125 -54.03125 93.78125 -55.53125 C 96.257812 -56.832031 98.960938 -57.921875 101.890625 -58.796875 C 104.816406 -59.679688 108.035156 -60.285156 111.546875 -60.609375 C 122.347656 -60.347656 130.15625 -57.382812 134.96875 -51.71875 C 139.269531 -45.738281 141.421875 -38.359375 141.421875 -29.578125 C 139.140625 -10.578125 130.222656 -0.945312 114.671875 -0.6875 C 105.953125 -0.6875 100.03125 -2.960938 96.90625 -7.515625 C 93.457031 -11.347656 91.898438 -15.867188 92.234375 -21.078125 C 92.234375 -27.191406 94.476562 -30.835938 98.96875 -32.015625 C 103.0625 -32.984375 107.351562 -33.46875 111.84375 -33.46875 C 112.488281 -31.84375 115.675781 -29.859375 121.40625 -27.515625 C 122.0625 -27.390625 122.648438 -27.289062 123.171875 -27.21875 C 123.691406 -27.15625 124.113281 -27.125 124.4375 -27.125 C 122.351562 -32.132812 119.71875 -35.226562 116.53125 -36.40625 C 114.707031 -36.863281 112.816406 -37.203125 110.859375 -37.421875 C 108.910156 -37.648438 106.863281 -37.765625 104.71875 -37.765625 C 100.75 -37.578125 97.429688 -35.5625 94.765625 -31.71875 C 92.097656 -27.613281 89.363281 -22.832031 86.5625 -17.375 C 83.894531 -12.101562 80.316406 -7.484375 75.828125 -3.515625 C 71.273438 0.648438 65.128906 2.863281 57.390625 3.125 C 46.003906 2.46875 37.285156 -1.078125 31.234375 -7.515625 C 25.703125 -13.628906 21.695312 -20.296875 19.21875 -27.515625 C 17.726562 -31.617188 16.984375 -35.625 16.984375 -39.53125 C 16.984375 -41.875 17.4375 -44.148438 18.34375 -46.359375 C 21.664062 -46.617188 25.195312 -46.941406 28.9375 -47.328125 C 32.675781 -47.722656 36.691406 -48.242188 40.984375 -48.890625 C 49.253906 -49.867188 56.445312 -52.601562 62.5625 -57.09375 C 54.6875 -62.820312 46.617188 -65.6875 38.359375 -65.6875 C 32.171875 -65.6875 25.273438 -63.863281 17.671875 -60.21875 L 17.671875 -106.1875 C 26.648438 -112.039062 36.015625 -117.488281 45.765625 -122.53125 C 55.523438 -127.570312 66.003906 -132.335938 77.203125 -136.828125 C 91.253906 -134.804688 105.304688 -130.445312 119.359375 -123.75 C 126.054688 -120.5625 131.488281 -116.625 135.65625 -111.9375 C 139.757812 -106.925781 141.8125 -101.234375 141.8125 -94.859375 Z M 141.8125 -94.859375 "/></g></g><g transform="translate(851.473885, 1022.208383)"><g><path d="M -87.15625 -201.828125 C -81.882812 -204.234375 -75.34375 -205.4375 -67.53125 -205.4375 C -57.0625 -205.238281 -46.265625 -201.53125 -35.140625 -194.3125 C -24.015625 -187.019531 -18.222656 -177.976562 -17.765625 -167.1875 C -17.828125 -167.113281 -18.441406 -166.523438 -19.609375 -165.421875 C -20.785156 -164.316406 -22.546875 -162.691406 -24.890625 -160.546875 C -25.929688 -159.628906 -27.050781 -158.78125 -28.25 -158 C -29.457031 -157.21875 -30.710938 -156.503906 -32.015625 -155.859375 C -34.421875 -154.234375 -37.019531 -153.421875 -39.8125 -153.421875 C -41.507812 -153.878906 -43.269531 -154.460938 -45.09375 -155.171875 C -47.238281 -155.828125 -49.484375 -156.507812 -51.828125 -157.21875 C -54.234375 -158.332031 -57.175781 -159.195312 -60.65625 -159.8125 C -64.132812 -160.425781 -68.21875 -160.800781 -72.90625 -160.9375 C -80.257812 -160.675781 -85.722656 -159.4375 -89.296875 -157.21875 C -92.941406 -154.945312 -96.296875 -153.8125 -99.359375 -153.8125 C -103.515625 -153.8125 -106.601562 -155.765625 -108.625 -159.671875 C -111.289062 -163.304688 -112.625 -166.785156 -112.625 -170.109375 C -112.625 -176.941406 -108.914062 -184.425781 -101.5 -192.5625 C -97.65625 -196.195312 -92.875 -199.285156 -87.15625 -201.828125 Z M -83.046875 -182.703125 C -88.054688 -181.140625 -90.988281 -177.394531 -91.84375 -171.46875 C -85.132812 -174.207031 -77.878906 -175.671875 -70.078125 -175.859375 C -62.660156 -175.671875 -55.765625 -174.113281 -49.390625 -171.1875 C -46.390625 -169.625 -43.472656 -168.0625 -40.640625 -166.5 C -37.816406 -164.9375 -34.941406 -163.40625 -32.015625 -161.90625 C -32.015625 -163.988281 -33.28125 -166.394531 -35.8125 -169.125 C -37.375 -170.425781 -39.050781 -171.660156 -40.84375 -172.828125 C -42.632812 -174.003906 -44.570312 -175.144531 -46.65625 -176.25 C -55.300781 -181.195312 -62.128906 -183.800781 -67.140625 -184.0625 C -69.878906 -184.0625 -72.566406 -183.945312 -75.203125 -183.71875 C -77.835938 -183.488281 -80.453125 -183.148438 -83.046875 -182.703125 Z M -83.046875 -182.703125 "/></g></g></g><g fill="#ff3131" fill-opacity="1"><g transform="translate(851.473885, 1022.208383)"><g><path d="M 142.203125 -90.5625 C 142.203125 -83.539062 139.238281 -76.382812 133.3125 -69.09375 C 127.332031 -61.351562 119.132812 -57.351562 108.71875 -57.09375 C 105.070312 -57.09375 100.679688 -58.265625 95.546875 -60.609375 C 94.503906 -61.128906 93.476562 -61.742188 92.46875 -62.453125 C 91.457031 -63.171875 90.429688 -63.988281 89.390625 -64.90625 C 87.578125 -66.332031 86.242188 -68.085938 85.390625 -70.171875 C 85.390625 -75.960938 86.851562 -80.613281 89.78125 -84.125 C 92.382812 -87.445312 96.320312 -89.109375 101.59375 -89.109375 C 103.8125 -89.109375 105.679688 -88.976562 107.203125 -88.71875 C 108.734375 -88.457031 109.9375 -87.96875 110.8125 -87.25 C 111.695312 -86.53125 112.332031 -85.550781 112.71875 -84.3125 C 113.113281 -83.082031 113.3125 -81.492188 113.3125 -79.546875 L 113.3125 -76.609375 C 113.3125 -75.117188 113.765625 -73.722656 114.671875 -72.421875 C 115.515625 -71.242188 116.703125 -70.734375 118.234375 -70.890625 C 119.765625 -71.054688 121.257812 -71.613281 122.71875 -72.5625 C 124.1875 -73.507812 125.472656 -74.710938 126.578125 -76.171875 C 127.679688 -77.640625 128.234375 -79.117188 128.234375 -80.609375 C 128.234375 -83.609375 126.609375 -86.570312 123.359375 -89.5 C 119.785156 -92.425781 115.394531 -94.929688 110.1875 -97.015625 C 104.457031 -99.222656 99.085938 -100.925781 94.078125 -102.125 C 89.066406 -103.332031 84.316406 -104.003906 79.828125 -104.140625 C 75.273438 -104.140625 70.929688 -104.023438 66.796875 -103.796875 C 62.671875 -103.566406 58.65625 -103.222656 54.75 -102.765625 C 47.007812 -101.597656 39.070312 -98.117188 30.9375 -92.328125 C 32.625 -92.585938 34.234375 -92.765625 35.765625 -92.859375 C 37.296875 -92.960938 38.773438 -93.015625 40.203125 -93.015625 C 49.441406 -92.753906 56.695312 -90.992188 61.96875 -87.734375 C 66.914062 -84.160156 69.75 -80.910156 70.46875 -77.984375 L 70.46875 -59.53125 C 73.519531 -60.445312 76.023438 -60.90625 77.984375 -60.90625 C 80.578125 -60.90625 82.820312 -59.863281 84.71875 -57.78125 C 88.550781 -56.601562 90.828125 -54.359375 91.546875 -51.046875 C 91.742188 -47.398438 92.617188 -43.691406 94.171875 -39.921875 C 95.210938 -38.035156 97.070312 -36.734375 99.75 -36.015625 C 101.632812 -35.359375 104.003906 -35.03125 106.859375 -35.03125 C 112.328125 -35.03125 116.984375 -36.398438 120.828125 -39.140625 C 124.921875 -41.742188 128.109375 -44.601562 130.390625 -47.71875 C 133.117188 -51.625 135.328125 -55.054688 137.015625 -58.015625 C 138.710938 -60.984375 139.984375 -63.539062 140.828125 -65.6875 C 142.191406 -58.132812 142.875 -50.617188 142.875 -43.140625 C 142.875 -32.015625 139.554688 -22.15625 132.921875 -13.5625 C 126.609375 -4.519531 117.921875 0.0976562 106.859375 0.296875 C 99.117188 0.0976562 92.257812 -2.503906 86.28125 -7.515625 C 80.550781 -12.265625 76.742188 -17.597656 74.859375 -23.515625 C 75.304688 -37.117188 76.441406 -44.375 78.265625 -45.28125 C 77.617188 -47.101562 76.578125 -48.304688 75.140625 -48.890625 C 74.171875 -48.890625 72.484375 -47.914062 70.078125 -45.96875 L 70.078125 -13.953125 C 70.078125 -10.566406 69.164062 -7.476562 67.34375 -4.6875 C 65.257812 -1.5625 62.882812 0 60.21875 0 C 58.195312 0 56.144531 -1.332031 54.0625 -4 C 53.414062 -5.882812 51.921875 -7.285156 49.578125 -8.203125 C 48.335938 -8.648438 47.003906 -9.101562 45.578125 -9.5625 C 44.148438 -10.019531 42.585938 -10.476562 40.890625 -10.9375 C 39.390625 -11.457031 37.90625 -12.023438 36.4375 -12.640625 C 34.976562 -13.253906 33.597656 -13.921875 32.296875 -14.640625 C 29.503906 -15.804688 27.128906 -17.5 25.171875 -19.71875 C 23.546875 -22.445312 22.226562 -25.207031 21.21875 -28 C 20.21875 -30.800781 19.550781 -33.703125 19.21875 -36.703125 C 18.375 -40.734375 17.953125 -43.660156 17.953125 -45.484375 C 17.953125 -45.742188 17.988281 -45.90625 18.0625 -45.96875 C 24.300781 -50.71875 31.195312 -53.90625 38.75 -55.53125 C 42.457031 -56.25 46.019531 -56.800781 49.4375 -57.1875 C 52.851562 -57.582031 56.21875 -57.78125 59.53125 -57.78125 C 50.8125 -63.957031 42.742188 -67.046875 35.328125 -67.046875 C 30.054688 -67.046875 24.300781 -65.484375 18.0625 -62.359375 L 18.0625 -103.453125 C 24.757812 -107.222656 30.757812 -110.703125 36.0625 -113.890625 C 41.363281 -117.078125 46.097656 -119.972656 50.265625 -122.578125 C 54.421875 -124.984375 58.742188 -127.421875 63.234375 -129.890625 C 67.722656 -132.367188 72.410156 -134.910156 77.296875 -137.515625 C 81.390625 -136.796875 85.421875 -136.015625 89.390625 -135.171875 C 93.359375 -134.328125 97.328125 -133.382812 101.296875 -132.34375 C 105.078125 -131.101562 108.65625 -129.734375 112.03125 -128.234375 C 115.414062 -126.742188 118.671875 -125.148438 121.796875 -123.453125 C 134.941406 -116.492188 141.742188 -105.53125 142.203125 -90.5625 Z M 58.453125 -33.46875 C 58.648438 -33.726562 58.75 -35.878906 58.75 -39.921875 C 58.75 -43.492188 58.878906 -45.378906 59.140625 -45.578125 C 58.359375 -45.578125 57.15625 -45.347656 55.53125 -44.890625 C 53.1875 -44.242188 51.65625 -42.976562 50.9375 -41.09375 C 51.269531 -39.132812 52.539062 -37.441406 54.75 -36.015625 C 57.03125 -34.316406 58.265625 -33.46875 58.453125 -33.46875 Z M 58.453125 -33.46875 "/></g></g></g></svg>